<?xml version="1.0" encoding="UTF-8"?>
<svg width="813px" height="210px" viewBox="0 0 813 210" version="1.1" xmlns="http://www.w3.org/2000/svg" xmlns:xlink="http://www.w3.org/1999/xlink">
    <!-- Generator: Sketch 52.6 (67491) - http://www.bohemiancoding.com/sketch -->
    <title>Group</title>
    <desc>Created with Sketch.</desc>
    <g id="Page-1" stroke="none" stroke-width="1" fill="none" fill-rule="evenodd">
        <g id="Group" transform="translate(-245.000000, 0.000000)">
            <circle id="Oval" fill="#FFF686" cx="382.5" cy="65.5" r="9.5"></circle>
            <circle id="Oval" fill="#F8E71C" cx="325.5" cy="37.5" r="9.5"></circle>
            <circle id="Oval" fill="#F8E71C" cx="344.5" cy="9.5" r="9.5"></circle>
            <circle id="Oval" fill="#F8E71C" cx="363.5" cy="37.5" r="9.5"></circle>
            <circle id="Oval" fill="#FBF05C" cx="363.5" cy="93.5" r="9.5"></circle>
            <circle id="Oval" fill="#FBF05C" cx="325.5" cy="93.5" r="9.5"></circle>
            <circle id="Oval" fill="#FAED4C" cx="399" cy="96" r="7"></circle>
            <circle id="Oval" fill="#FAED4C" cx="290" cy="96" r="7"></circle>
            <circle id="Oval" fill="#FAED4C" cx="306" cy="122" r="7"></circle>
            <circle id="Oval" fill="#FAED4C" cx="326" cy="145" r="5"></circle>
            <circle id="Oval" fill="#FAED4C" cx="288" cy="145" r="5"></circle>
            <circle id="Oval" fill="#FAED4C" cx="440" cy="145" r="5"></circle>
            <circle id="Oval" fill="#FAED4C" cx="402" cy="145" r="5"></circle>
            <circle id="Oval" fill="#FAED4C" cx="364" cy="145" r="5"></circle>
            <circle id="Oval" fill="#FAED4C" cx="386" cy="165" r="5"></circle>
            <circle id="Oval" fill="#FAED4C" cx="422" cy="165" r="5"></circle>
            <circle id="Oval" fill="#FAED4C" cx="345" cy="165" r="5"></circle>
            <circle id="Oval" fill="#FAED4C" cx="269" cy="165" r="5"></circle>
            <circle id="Oval" fill="#FAED4C" cx="308" cy="165" r="5"></circle>
            <circle id="Oval" fill="#FAED4C" cx="409.5" cy="184.5" r="2.5"></circle>
            <circle id="Oval" fill="#FAED4C" cx="386.5" cy="184.5" r="2.5"></circle>
            <circle id="Oval" fill="#FAED4C" cx="363.5" cy="184.5" r="2.5"></circle>
            <circle id="Oval" fill="#FAED4C" cx="340.5" cy="184.5" r="2.5"></circle>
            <circle id="Oval" fill="#FAED4C" cx="317.5" cy="184.5" r="2.5"></circle>
            <circle id="Oval" fill="#FAED4C" cx="283.5" cy="196.5" r="2.5"></circle>
            <circle id="Oval" fill="#FAED4C" cx="305.5" cy="196.5" r="2.5"></circle>
            <circle id="Oval" fill="#FAED4C" cx="327.5" cy="196.5" r="2.5"></circle>
            <circle id="Oval" fill="#FAED4C" cx="349.5" cy="196.5" r="2.5"></circle>
            <circle id="Oval" fill="#FAED4C" cx="373.5" cy="196.5" r="2.5"></circle>
            <circle id="Oval" fill="#FAED4C" cx="399.5" cy="196.5" r="2.5"></circle>
            <circle id="Oval" fill="#FAED4C" cx="294.5" cy="184.5" r="2.5"></circle>
            <circle id="Oval" fill="#FAED4C" cx="271.5" cy="184.5" r="2.5"></circle>
            <circle id="Oval" fill="#FAED4C" cx="250" cy="145" r="5"></circle>
            <circle id="Oval" fill="#FAED4C" cx="270" cy="122" r="7"></circle>
            <circle id="Oval" fill="#FAED4C" cx="419" cy="119" r="7"></circle>
            <circle id="Oval" fill="#FAED4C" cx="383" cy="119" r="7"></circle>
            <circle id="Oval" fill="#FCEF49" cx="344.5" cy="121.5" r="9.5"></circle>
            <circle id="Oval" fill="#FFF686" cx="306.5" cy="65.5" r="9.5"></circle>
            <circle id="Oval" fill="#F8E71C" cx="344.5" cy="65.5" r="9.5"></circle>
            <text id="Gallagher" font-family="HelveticaNeue, Helvetica Neue" font-size="95" font-weight="normal" fill="#FFFFFF">
                <tspan x="494" y="90">Gallagher</tspan>
            </text>
            <text id="&amp;-Company" font-family="HelveticaNeue, Helvetica Neue" font-size="95" font-weight="normal" fill="#FFFFFF">
                <tspan x="561" y="190">&amp; Company</tspan>
            </text>
        </g>
    </g>
</svg>